<svg fill="none" height="24" viewBox="0 0 24 24" width="24" xmlns="http://www.w3.org/2000/svg"><path clip-rule="evenodd" d="m7.25285 4.25547c.84118-1.77596 2.64978-3.00547 4.74715-3.00547 2.0974 0 3.906 1.22951 4.7471 3.00547.0839-.00363.1682-.00547.2529-.00547 3.1756 0 5.75 2.57436 5.75 5.75 0 2.1806-1.2137 4.0762-3 5.0508v3.0012c0 .8985.0001 1.6477-.0799 2.2425-.0844.6278-.2701 1.1946-.7256 1.65-.4554.4555-1.0222.6412-1.65.7256-.5948.08-1.344.0799-2.2425.0799h-6.10399c-.89849 0-1.64771.0001-2.24249-.0799-.62779-.0844-1.19459-.2701-1.65006-.7256-.45547-.4554-.64114-1.0222-.72555-1.65-.07997-.5948-.07994-1.344-.07991-2.2425v-3.0012c-1.78629-.9746-3-2.8702-3-5.0508 0-3.17564 2.57436-5.75 5.75-5.75.08469 0 .16899.00184.25285.00547zm-.45023 1.49903c-2.25558.10312-4.05262 1.96445-4.05262 4.2455 0 1.7416 1.04769 3.2402 2.55028 3.8967.27317.1193.44972.3892.44972.6873v2.666h12.5v-2.666c0-.2981.1765-.568.4497-.6873 1.5026-.6565 2.5503-2.1551 2.5503-3.8967 0-2.28105-1.797-4.14239-4.0526-4.2455.0347.24375.0526.49268.0526.7455v.5c0 .41421-.3358.75-.75.75s-.75-.33579-.75-.75v-.5c0-.42285-.0697-.82788-.1976-1.20514-.5022-1.48084-1.904-2.54486-3.5524-2.54486s-3.05019 1.06402-3.55237 2.54486c-.12793.37726-.19763.78229-.19763 1.20514v.5c0 .41421-.33579.75-.75.75s-.75-.33579-.75-.75v-.5c0-.25283.01792-.50175.05262-.7455zm11.44558 12.9955h-12.49639c.00423.5694.01827.9991.06473 1.3446.06204.4615.16926.659.29958.7893.13031.1303.32781.2375.78927.2996.48304.0649 1.1306.0665 2.09461.0665h6c.964 0 1.6116-.0016 2.0946-.0665.4615-.0621.659-.1693.7893-.2996s.2375-.3278.2996-.7893c.0464-.3455.0605-.7752.0647-1.3446z" fill="#1c274c" fill-rule="evenodd"/></svg>